{
  "accessors": [
    {
      "bufferView": 2,
      "componentType": 5126,
      "count": 18,
      "max": [
        31.698699951171875,
        48.045101165771484,
        67.21678924560547
      ],
      "min": [
        22.43375015258789,
        29.519250869750977,
        16.189170837402344
      ],
      "type": "VEC3"
    },
    {
      "bufferView": 2,
      "byteOffset": 216,
      "componentType": 5126,
      "count": 18,
      "max": [
        -0.8446916341781616,
        0.5061509609222412,
        0.19996051490306854
      ],
      "min": [
        -0.8770111203193665,
        0.4482206106185913,
        0.17306022346019745
      ],
      "type": "VEC3"
    },
    {
      "bufferView": 1,
      "componentType": 5126,
      "count": 18,
      "max": [
        0.6370700001716614,
        0.9947800040245056
      ],
      "min": [
        0.36441001296043396,
        -0.014999999664723873
      ],
      "type": "VEC2"
    },
    {
      "bufferView": 0,
      "componentType": 5125,
      "count": 36,
      "type": "SCALAR"
    },
    {
      "bufferView": 2,
      "byteOffset": 432,
      "componentType": 5126,
      "count": 4,
      "max": [
        -22.82685089111328,
        1.3856500387191772,
        36.4622917175293
      ],
      "min": [
        -69.31002044677734,
        -18.37310028076172,
        -5.191030025482178
      ],
      "type": "VEC3"
    },
    {
      "bufferView": 2,
      "byteOffset": 480,
      "componentType": 5126,
      "count": 4,
      "max": [
        0.3922899067401886,
        -0.919829785823822,
        0.0046799988485872746
      ],
      "min": [
        0.3922899067401886,
        -0.919829785823822,
        0.0046799988485872746
      ],
      "type": "VEC3"
    },
    {
      "bufferView": 1,
      "byteOffset": 144,
      "componentType": 5126,
      "count": 4,
      "max": [
        1.0,
        1.0
      ],
      "min": [
        0.0,
        0.0
      ],
      "type": "VEC2"
    },
    {
      "bufferView": 0,
      "byteOffset": 144,
      "componentType": 5125,
      "count": 6,
      "type": "SCALAR"
    },
    {
      "bufferView": 2,
      "byteOffset": 528,
      "componentType": 5126,
      "count": 4,
      "max": [
        -12.080349922180176,
        6.707019805908203,
        28.688459396362305
      ],
      "min": [
        -51.419681549072266,
        -11.883729934692383,
        -6.977049827575684
      ],
      "type": "VEC3"
    },
    {
      "bufferView": 2,
      "byteOffset": 576,
      "componentType": 5126,
      "count": 4,
      "max": [
        0.4283907115459442,
        -0.9035815000534058,
        0.004680007696151733
      ],
      "min": [
        0.4283907115459442,
        -0.9035815000534058,
        0.004680007696151733
      ],
      "type": "VEC3"
    },
    {
      "bufferView": 1,
      "byteOffset": 176,
      "componentType": 5126,
      "count": 4,
      "max": [
        1.0,
        1.0
      ],
      "min": [
        0.0,
        0.0
      ],
      "type": "VEC2"
    },
    {
      "bufferView": 0,
      "byteOffset": 168,
      "componentType": 5125,
      "count": 6,
      "type": "SCALAR"
    },
    {
      "bufferView": 2,
      "byteOffset": 624,
      "componentType": 5126,
      "count": 1236,
      "max": [
        2.1053500175476074,
        1.3975000381469727,
        5.198319911956787
      ],
      "min": [
        -1.2941900491714478,
        -0.8509100079536438,
        2.1102800369262695
      ],
      "type": "VEC3"
    },
    {
      "bufferView": 2,
      "byteOffset": 15456,
      "componentType": 5126,
      "count": 1236,
      "max": [
        0.9969202280044556,
        0.9991239309310913,
        0.9995592832565308
      ],
      "min": [
        -0.9994865655899048,
        -0.9998857378959656,
        -0.9997156262397766
      ],
      "type": "VEC3"
    },
    {
      "bufferView": 0,
      "byteOffset": 192,
      "componentType": 5125,
      "count": 6912,
      "type": "SCALAR"
    },
    {
      "bufferView": 2,
      "byteOffset": 30288,
      "componentType": 5126,
      "count": 200,
      "max": [
        0.037939999252557755,
        -0.6006399989128113,
        4.148940086364746
      ],
      "min": [
        -0.3006399869918823,
        -0.6881499886512756,
        4.018430233001709
      ],
      "type": "VEC3"
    },
    {
      "bufferView": 2,
      "byteOffset": 32688,
      "componentType": 5126,
      "count": 200,
      "max": [
        0.9920629262924194,
        0.8877798914909363,
        0.8452234268188477
      ],
      "min": [
        -0.9450045824050903,
        -0.9467021226882935,
        -0.999045729637146
      ],
      "type": "VEC3"
    },
    {
      "bufferView": 1,
      "byteOffset": 208,
      "componentType": 5126,
      "count": 200,
      "max": [
        0.6868199706077576,
        0.5878400206565857
      ],
      "min": [
        0.3131200075149536,
        0.4557200074195862
      ],
      "type": "VEC2"
    },
    {
      "bufferView": 0,
      "byteOffset": 27840,
      "componentType": 5125,
      "count": 564,
      "type": "SCALAR"
    },
    {
      "bufferView": 2,
      "byteOffset": 35088,
      "componentType": 5126,
      "count": 65532,
      "max": [
        2.987459897994995,
        2.716670036315918,
        5.6656999588012695
      ],
      "min": [
        -2.8305299282073975,
        -3.3505899906158447,
        -0.0741100013256073
      ],
      "type": "VEC3"
    },
    {
      "bufferView": 2,
      "byteOffset": 821472,
      "componentType": 5126,
      "count": 65532,
      "max": [
        0.9999938607215881,
        0.9999051690101624,
        0.9999991059303284
      ],
      "min": [
        -0.9999842047691345,
        -0.9999592900276184,
        -1.0
      ],
      "type": "VEC3"
    },
    {
      "bufferView": 1,
      "byteOffset": 1808,
      "componentType": 5126,
      "count": 65532,
      "max": [
        0.9993299841880798,
        1.0287599563598633
      ],
      "min": [
        9.999999747378752e-05,
        0.00018000000272877514
      ],
      "type": "VEC2"
    },
    {
      "bufferView": 0,
      "byteOffset": 30096,
      "componentType": 5125,
      "count": 291867,
      "type": "SCALAR"
    },
    {
      "bufferView": 2,
      "byteOffset": 1607856,
      "componentType": 5126,
      "count": 14968,
      "max": [
        1.2206900119781494,
        2.7105000019073486,
        5.264170169830322
      ],
      "min": [
        -1.9333000183105469,
        -1.8770699501037598,
        -0.051600001752376556
      ],
      "type": "VEC3"
    },
    {
      "bufferView": 2,
      "byteOffset": 1787472,
      "componentType": 5126,
      "count": 14968,
      "max": [
        0.9996446371078491,
        0.9995585680007935,
        0.9997859597206116
      ],
      "min": [
        -0.9999402165412903,
        -0.9997121691703796,
        -0.9999528527259827
      ],
      "type": "VEC3"
    },
    {
      "bufferView": 1,
      "byteOffset": 526064,
      "componentType": 5126,
      "count": 14968,
      "max": [
        0.9972100257873535,
        1.0097399950027466
      ],
      "min": [
        0.00015999999595806003,
        0.0020200000144541264
      ],
      "type": "VEC2"
    },
    {
      "bufferView": 0,
      "byteOffset": 1197564,
      "componentType": 5125,
      "count": 61071,
      "type": "SCALAR"
    },
    {
      "bufferView": 2,
      "byteOffset": 1967088,
      "componentType": 5126,
      "count": 2593,
      "max": [
        2.881730079650879,
        2.6597900390625,
        5.366950035095215
      ],
      "min": [
        -2.661360025405884,
        -3.164259910583496,
        -0.022840000689029694
      ],
      "type": "VEC3"
    },
    {
      "bufferView": 2,
      "byteOffset": 1998204,
      "componentType": 5126,
      "count": 2593,
      "max": [
        0.99534672498703,
        0.9989341497421265,
        0.9993219375610352
      ],
      "min": [
        -0.9996541738510132,
        -0.9958593845367432,
        -0.9940156936645508
      ],
      "type": "VEC3"
    },
    {
      "bufferView": 1,
      "byteOffset": 645808,
      "componentType": 5126,
      "count": 2593,
      "max": [
        0.8924499750137329,
        0.9961699843406677
      ],
      "min": [
        0.0,
        0.04377000033855438
      ],
      "type": "VEC2"
    },
    {
      "bufferView": 0,
      "byteOffset": 1441848,
      "componentType": 5125,
      "count": 6894,
      "type": "SCALAR"
    },
    {
      "bufferView": 2,
      "byteOffset": 2029320,
      "componentType": 5126,
      "count": 1414,
      "max": [
        4.108280181884766,
        4.6585798263549805,
        6.125730037689209
      ],
      "min": [
        -3.2356998920440674,
        -4.4917402267456055,
        1.8975900411605835
      ],
      "type": "VEC3"
    },
    {
      "bufferView": 2,
      "byteOffset": 2046288,
      "componentType": 5126,
      "count": 1414,
      "max": [
        0.999809205532074,
        0.998486340045929,
        0.9974377155303955
      ],
      "min": [
        -0.9998080134391785,
        -0.9997069239616394,
        -0.9997925162315369
      ],
      "type": "VEC3"
    },
    {
      "bufferView": 1,
      "byteOffset": 666552,
      "componentType": 5126,
      "count": 1414,
      "max": [
        0.9985399842262268,
        0.9901400208473206
      ],
      "min": [
        0.04077000170946121,
        0.026249999180436134
      ],
      "type": "VEC2"
    },
    {
      "bufferView": 0,
      "byteOffset": 1469424,
      "componentType": 5125,
      "count": 3180,
      "type": "SCALAR"
    },
    {
      "bufferView": 2,
      "byteOffset": 2063256,
      "componentType": 5126,
      "count": 37640,
      "max": [
        4.128689765930176,
        4.673279762268066,
        6.708970069885254
      ],
      "min": [
        -4.415050029754639,
        -4.501609802246094,
        0.9627599716186523
      ],
      "type": "VEC3"
    },
    {
      "bufferView": 2,
      "byteOffset": 2514936,
      "componentType": 5126,
      "count": 37640,
      "max": [
        0.9999228715896606,
        0.9999083876609802,
        0.9999470114707947
      ],
      "min": [
        -0.9998080134391785,
        -0.9997309446334839,
        -0.9999679923057556
      ],
      "type": "VEC3"
    },
    {
      "bufferView": 1,
      "byteOffset": 677864,
      "componentType": 5126,
      "count": 37640,
      "max": [
        0.9985399842262268,
        0.9975200295448303
      ],
      "min": [
        0.0014600000577047467,
        0.0014600000577047467
      ],
      "type": "VEC2"
    },
    {
      "bufferView": 0,
      "byteOffset": 1482144,
      "componentType": 5125,
      "count": 129264,
      "type": "SCALAR"
    }
  ],
  "asset": {
    "extras": {
      "author": "zeroswat (https://sketchfab.com/zeroswat)",
      "license": "CC-BY-4.0 (http://creativecommons.org/licenses/by/4.0/)",
      "source": "https://sketchfab.com/3d-models/raid-boss-shogun-8700d16e247d4a51956ef904643b95fa",
      "title": "Raid Boss Shogun"
    },
    "generator": "Sketchfab-12.66.0",
    "version": "2.0"
  },
  "bufferViews": [
    {
      "buffer": 0,
      "byteLength": 1999200,
      "name": "floatBufferViews",
      "target": 34963
    },
    {
      "buffer": 0,
      "byteLength": 978984,
      "byteOffset": 1999200,
      "byteStride": 8,
      "name": "floatBufferViews",
      "target": 34962
    },
    {
      "buffer": 0,
      "byteLength": 2966616,
      "byteOffset": 2978184,
      "byteStride": 12,
      "name": "floatBufferViews",
      "target": 34962
    }
  ],
  "buffers": [
    {
      "byteLength": 5944800,
      "uri": "scene.bin"
    }
  ],
  "images": [
    {
      "uri": "textures/Gun_Sword_baseColor.png"
    },
    {
      "uri": "textures/Armors_baseColor.png"
    },
    {
      "uri": "textures/Smoke0324_S.001_baseColor.png"
    },
    {
      "uri": "textures/Smoke0330_S.001_baseColor.png"
    },
    {
      "uri": "textures/Blade_baseColor.png"
    }
  ],
  "materials": [
    {
      "doubleSided": true,
      "emissiveFactor": [
        0.558800458908081,
        1.0,
        1.0
      ],
      "name": "BlueGlow",
      "pbrMetallicRoughness": {
        "baseColorFactor": [
          0.02187464094774034,
          0.3385781615253777,
          0.4788319434779161,
          1.0
        ],
        "metallicFactor": 0.0,
        "roughnessFactor": 0.0
      }
    },
    {
      "doubleSided": true,
      "name": "Gun_Sword",
      "pbrMetallicRoughness": {
        "baseColorTexture": {
          "index": 0
        },
        "metallicFactor": 0.16,
        "roughnessFactor": 0.49
      }
    },
    {
      "doubleSided": true,
      "emissiveFactor": [
        0.4235206693410871,
        1.0,
        0.5930176973342893
      ],
      "name": "GreenGlow",
      "pbrMetallicRoughness": {
        "baseColorFactor": [
          0.027975998054606554,
          0.6204585874482292,
          0.09673657041187195,
          1.0
        ],
        "metallicFactor": 0.0,
        "roughnessFactor": 0.0
      }
    },
    {
      "doubleSided": true,
      "name": "Armors",
      "pbrMetallicRoughness": {
        "baseColorTexture": {
          "index": 1
        },
        "metallicFactor": 0.1,
        "roughnessFactor": 0.5
      }
    },
    {
      "doubleSided": true,
      "name": "Pipes",
      "pbrMetallicRoughness": {
        "baseColorFactor": [
          7.450580596923828e-09,
          4.581282908588946e-09,
          2.338931270884359e-09,
          1.0
        ],
        "roughnessFactor": 0.20000000298023224
      }
    },
    {
      "alphaMode": "BLEND",
      "doubleSided": true,
      "emissiveFactor": [
        1.0,
        0.16109310462671647,
        0.16109310462671647
      ],
      "name": "Smoke0324_S.001",
      "pbrMetallicRoughness": {
        "baseColorFactor": [
          1.0,
          1.0,
          1.0,
          0.25
        ],
        "baseColorTexture": {
          "index": 2
        },
        "roughnessFactor": 0.2
      }
    },
    {
      "alphaMode": "BLEND",
      "doubleSided": true,
      "emissiveFactor": [
        1.0,
        0.13682986402849287,
        0.13682986402849287
      ],
      "name": "Smoke0330_S.001",
      "pbrMetallicRoughness": {
        "baseColorFactor": [
          1.0,
          1.0,
          1.0,
          0.27
        ],
        "baseColorTexture": {
          "index": 3
        },
        "roughnessFactor": 0.2
      }
    },
    {
      "alphaMode": "BLEND",
      "doubleSided": true,
      "emissiveFactor": [
        1.0,
        0.0641589297847301,
        0.07977199206185925
      ],
      "name": "Blade",
      "pbrMetallicRoughness": {
        "baseColorFactor": [
          1.0,
          1.0,
          1.0,
          0.94
        ],
        "baseColorTexture": {
          "index": 4
        },
        "roughnessFactor": 0.2
      }
    }
  ],
  "meshes": [
    {
      "name": "Blade",
      "primitives": [
        {
          "attributes": {
            "NORMAL": 1,
            "POSITION": 0,
            "TEXCOORD_0": 2
          },
          "indices": 3,
          "material": 7,
          "mode": 4
        }
      ]
    },
    {
      "name": "Smoke0330_S.001",
      "primitives": [
        {
          "attributes": {
            "NORMAL": 5,
            "POSITION": 4,
            "TEXCOORD_0": 6
          },
          "indices": 7,
          "material": 6,
          "mode": 4
        }
      ]
    },
    {
      "name": "Smoke0324_S.001",
      "primitives": [
        {
          "attributes": {
            "NORMAL": 9,
            "POSITION": 8,
            "TEXCOORD_0": 10
          },
          "indices": 11,
          "material": 5,
          "mode": 4
        }
      ]
    },
    {
      "name": "Pipes",
      "primitives": [
        {
          "attributes": {
            "NORMAL": 13,
            "POSITION": 12
          },
          "indices": 14,
          "material": 4,
          "mode": 4
        }
      ]
    },
    {
      "name": "Shougun_Gundam",
      "primitives": [
        {
          "attributes": {
            "NORMAL": 16,
            "POSITION": 15,
            "TEXCOORD_0": 17
          },
          "indices": 18,
          "material": 2,
          "mode": 4
        }
      ]
    },
    {
      "name": "Shougun_Gundam",
      "primitives": [
        {
          "attributes": {
            "NORMAL": 20,
            "POSITION": 19,
            "TEXCOORD_0": 21
          },
          "indices": 22,
          "material": 3,
          "mode": 4
        }
      ]
    },
    {
      "name": "Shougun_Gundam",
      "primitives": [
        {
          "attributes": {
            "NORMAL": 24,
            "POSITION": 23,
            "TEXCOORD_0": 25
          },
          "indices": 26,
          "material": 3,
          "mode": 4
        }
      ]
    },
    {
      "name": "Shougun_Gundam",
      "primitives": [
        {
          "attributes": {
            "NORMAL": 28,
            "POSITION": 27,
            "TEXCOORD_0": 29
          },
          "indices": 30,
          "material": 0,
          "mode": 4
        }
      ]
    },
    {
      "name": "Gun Sword",
      "primitives": [
        {
          "attributes": {
            "NORMAL": 32,
            "POSITION": 31,
            "TEXCOORD_0": 33
          },
          "indices": 34,
          "material": 0,
          "mode": 4
        }
      ]
    },
    {
      "name": "Gun Sword",
      "primitives": [
        {
          "attributes": {
            "NORMAL": 36,
            "POSITION": 35,
            "TEXCOORD_0": 37
          },
          "indices": 38,
          "material": 1,
          "mode": 4
        }
      ]
    }
  ],
  "nodes": [
    {
      "children": [
        1
      ],
      "matrix": [
        1.0,
        0.0,
        0.0,
        0.0,
        0.0,
        2.220446049250313e-16,
        -1.0,
        0.0,
        0.0,
        1.0,
        2.220446049250313e-16,
        0.0,
        0.0,
        0.0,
        0.0,
        1.0
      ],
      "name": "Sketchfab_model"
    },
    {
      "children": [
        2,
        4,
        6,
        8,
        10,
        15
      ],
      "name": "Root"
    },
    {
      "children": [
        3
      ],
      "matrix": [
        0.05152000000000001,
        -0.07239000000000001,
        -0.04588000000000001,
        0.0,
        -0.021960000000000007,
        0.04060000000000001,
        -0.08871000000000002,
        0.0,
        0.08285000000000001,
        0.05578,
        0.005020000000000001,
        0.0,
        -9.041839999999999,
        -3.2948399999999998,
        5.508579999999999,
        1.0
      ],
      "name": "Blade"
    },
    {
      "mesh": 0,
      "name": "Blade"
    },
    {
      "children": [
        5
      ],
      "matrix": [
        0.1,
        0.0,
        -0.0,
        0.0,
        -0.0,
        0.1,
        0.0,
        0.0,
        0.0,
        -0.0,
        0.1,
        0.0,
        -1.46405,
        -1.00031,
        0.022770000000000006,
        1.0
      ],
      "name": "Smoke0330_S.001"
    },
    {
      "mesh": 1,
      "name": "Smoke0330_S.001"
    },
    {
      "children": [
        7
      ],
      "matrix": [
        0.1,
        0.0,
        -0.0,
        0.0,
        -0.0,
        0.1,
        0.0,
        0.0,
        0.0,
        -0.0,
        0.1,
        0.0,
        -1.46405,
        -1.00031,
        0.022770000000000006,
        1.0
      ],
      "name": "Smoke0324_S.001"
    },
    {
      "mesh": 2,
      "name": "Smoke0324_S.001"
    },
    {
      "children": [
        9
      ],
      "name": "Pipes"
    },
    {
      "mesh": 3,
      "name": "Pipes"
    },
    {
      "children": [
        11,
        12,
        13,
        14
      ],
      "name": "Shougun_Gundam"
    },
    {
      "mesh": 4,
      "name": "Shougun_Gundam"
    },
    {
      "mesh": 5,
      "name": "Shougun_Gundam"
    },
    {
      "mesh": 6,
      "name": "Shougun_Gundam"
    },
    {
      "mesh": 7,
      "name": "Shougun_Gundam"
    },
    {
      "children": [
        16,
        17
      ],
      "name": "Gun Sword"
    },
    {
      "mesh": 8,
      "name": "Gun Sword"
    },
    {
      "mesh": 9,
      "name": "Gun Sword"
    }
  ],
  "samplers": [
    {
      "magFilter": 9729,
      "minFilter": 9987,
      "wrapS": 10497,
      "wrapT": 10497
    }
  ],
  "scene": 0,
  "scenes": [
    {
      "name": "Sketchfab_Scene",
      "nodes": [
        0
      ]
    }
  ],
  "textures": [
    {
      "sampler": 0,
      "source": 0
    },
    {
      "sampler": 0,
      "source": 1
    },
    {
      "sampler": 0,
      "source": 2
    },
    {
      "sampler": 0,
      "source": 3
    },
    {
      "sampler": 0,
      "source": 4
    }
  ]
}
